<svg width="128" height="128" viewBox="0 0 128 128" fill="none" xmlns="http://www.w3.org/2000/svg">
<g clip-path="url(#clip0_334_2)">
<path d="M93.7376 0.0222015H34.2628C15.3526 0.0222015 0.022583 15.3522 0.022583 34.2624V93.7372C0.022583 95.383 0.141376 97.0009 0.365807 98.5847C2.7207 115.199 16.9984 127.977 34.2628 127.977H93.7376C112.648 127.977 127.978 112.647 127.978 93.7372V34.2624C127.978 15.3522 112.648 0.0222015 93.7376 0.0222015ZM126.838 92.8621C126.838 111.626 111.626 126.838 92.8625 126.838H35.1379C17.92 126.838 3.69529 114.029 1.46782 97.4214C1.26764 95.9297 1.16242 94.4084 1.16242 92.8621V35.1375C1.16242 16.3732 16.3736 1.16203 35.1379 1.16203H92.8625C111.627 1.16203 126.838 16.3736 126.838 35.1375V92.8621Z" fill="url(#paint0_linear_334_2)"/>
<path d="M11.9187 65.5085C11.9187 36.7447 35.2361 13.4273 64 13.4273C69.2026 13.4273 74.2256 14.1939 78.9666 15.6136L81.2187 13.2365C75.8147 11.4041 70.0235 10.4102 64.0004 10.4102C34.4038 10.4102 10.4106 34.403 10.4106 64C10.4106 71.0457 11.7711 77.7738 14.2427 83.9366L14.9863 83.1515C13.0026 77.6414 11.9191 71.7018 11.9191 65.5085H11.9187Z" fill="url(#paint1_linear_334_2)"/>
<path d="M26.2231 64C26.2231 43.1365 43.1365 26.2231 64 26.2231C65.573 26.2231 67.1235 26.321 68.646 26.5076L78.9662 15.6136C74.2256 14.1935 69.2026 13.4273 63.9996 13.4273C35.2357 13.4273 11.9183 36.7447 11.9183 65.5085C11.9183 71.7018 13.0018 77.6414 14.9855 83.1515L26.8101 70.6697C26.4245 68.5047 26.2231 66.276 26.2231 64Z" fill="url(#paint2_linear_334_2)"/>
<path d="M81.2183 13.2365L78.9662 15.6136L68.646 26.5076C87.3174 28.798 101.776 44.7096 101.776 63.9996C101.776 84.8631 84.8631 101.776 63.9996 101.776C45.412 101.776 29.9599 88.3517 26.8101 70.6692L14.9855 83.1511L14.2419 83.9362C22.1521 103.66 41.4487 117.589 63.9996 117.589C93.5962 117.589 117.589 93.5966 117.589 63.9996C117.589 40.4261 102.368 20.4077 81.2183 13.2361V13.2365Z" fill="url(#paint3_linear_334_2)"/>
<path d="M64 101.777C84.8635 101.777 101.777 84.8635 101.777 64C101.777 44.7096 87.3174 28.798 68.6465 26.508L26.8105 70.6697C29.9604 88.3521 45.4124 101.777 64 101.777Z" fill="url(#paint4_linear_334_2)"/>
<path d="M26.2231 64C26.2231 66.276 26.4245 68.5047 26.8101 70.6696L68.646 26.508C67.1231 26.3214 65.573 26.2236 64 26.2236C43.1365 26.2236 26.2231 43.1369 26.2231 64.0004V64Z" fill="url(#paint5_linear_334_2)"/>
<path d="M117.59 64C117.59 93.5966 93.597 117.59 64 117.59C41.4491 117.59 22.1525 103.66 14.2424 83.9366L1.46744 97.4218C3.69531 114.03 17.9196 126.838 35.1375 126.838H92.8621C111.626 126.838 126.838 111.627 126.838 92.8625V35.1379C126.838 16.3736 111.626 1.16245 92.8621 1.16245H92.657L81.2183 13.2369C102.368 20.4085 117.589 40.4269 117.589 64.0004L117.59 64Z" fill="url(#paint6_linear_334_2)"/>
<path d="M1.16202 35.1379V92.8625C1.16202 94.4088 1.26725 95.9301 1.46743 97.4218L14.2424 83.9366C11.7707 77.7738 10.4102 71.0462 10.4102 64C10.4102 34.4034 34.403 10.4102 64 10.4102C70.0235 10.4102 75.8143 11.4041 81.2183 13.2365L92.6569 1.16203H35.1379C16.3736 1.16203 1.16243 16.3736 1.16243 35.1375L1.16202 35.1379Z" fill="url(#paint7_linear_334_2)"/>
<path d="M68.309 126.838H59.691L61.7491 70.2212C62.4512 70.4752 63.2108 70.6146 64.0008 70.6146C64.7909 70.6146 65.5488 70.4769 66.2509 70.2224L68.309 126.838V126.838Z" fill="url(#paint8_linear_334_2)"/>
<path d="M102.113 85.6112C102.113 85.8562 102.048 86.1045 101.911 86.3285C101.533 86.9487 100.74 87.1715 100.095 86.8369C94.8532 84.1175 74.053 73.3821 72.5654 72.4787C71.5879 71.8822 69.8521 69.8878 68.7702 68.5819C69.7008 67.6135 70.3396 66.3635 70.5439 64.9725C72.1585 65.3145 75.067 65.9895 76.1234 66.6328C77.6094 67.5379 96.7041 81.0769 101.529 84.4821C101.908 84.7501 102.113 85.1767 102.113 85.6108V85.6112Z" fill="#F4F7EF"/>
<path d="M59.229 68.5823C58.1483 69.8882 56.4129 71.8826 55.4338 72.4791C53.9462 73.3826 33.146 84.1179 27.9039 86.8374C27.2594 87.1719 26.4665 86.9492 26.0879 86.3289C25.9519 86.1049 25.8865 85.8566 25.8865 85.6116C25.8865 85.1771 26.0908 84.7505 26.4706 84.4829C31.2951 81.0778 50.3898 67.5387 51.8774 66.6336C52.9322 65.9903 55.8391 65.3153 57.4553 64.9734C57.6596 66.3639 58.2984 67.6139 59.229 68.5828V68.5823Z" fill="#F4F7EF"/>
<path d="M67.6324 51.856C67.6324 53.141 66.6821 56.0524 66.0951 57.7245C65.437 57.505 64.7333 57.3854 64.0008 57.3854C63.2683 57.3854 62.5634 57.505 61.9049 57.7245C61.3179 56.0524 60.3688 53.141 60.3688 51.856C60.3688 50.0096 62.1104 25.219 62.5375 18.9661C62.5889 18.1958 63.2289 17.5998 64.0008 17.5998C64.3868 17.5998 64.7378 17.7482 65.0013 17.9948C65.2648 18.2398 65.437 18.5806 65.4646 18.9665C65.8896 25.2194 67.6332 50.01 67.6332 51.8564L67.6324 51.856Z" fill="#F4F7EF"/>
<path d="M70.615 64C70.615 64.3301 70.5907 64.6552 70.5439 64.9729C70.3396 66.3635 69.7008 67.6135 68.7702 68.5823C68.0739 69.307 67.2144 69.873 66.2505 70.2228C65.5484 70.4769 64.79 70.615 64.0004 70.615C63.2108 70.615 62.4508 70.4756 61.7487 70.2216C60.7848 69.8734 59.9253 69.3074 59.229 68.5828C58.2984 67.6143 57.6596 66.3643 57.4553 64.9734C57.4085 64.6556 57.3842 64.3301 57.3842 64.0004C57.3842 61.0799 59.2775 58.6009 61.9045 57.7249C62.5626 57.5054 63.2679 57.3858 64.0004 57.3858C64.7329 57.3858 65.4366 57.5054 66.0947 57.7249C68.7217 58.6013 70.615 61.0799 70.615 64.0004V64Z" fill="#EFF4EB"/>
</g>
<defs>
<linearGradient id="paint0_linear_334_2" x1="8.25092" y1="11.9491" x2="119.75" y2="116.05" gradientUnits="userSpaceOnUse">
<stop stop-color="#D1F3E3"/>
<stop offset="0.19" stop-color="#B6E3D0"/>
<stop offset="0.69" stop-color="#72BD9F"/>
<stop offset="0.93" stop-color="#58AE8D"/>
</linearGradient>
<linearGradient id="paint1_linear_334_2" x1="72.0881" y1="4.47588" x2="2.36636" y2="72.3553" gradientUnits="userSpaceOnUse">
<stop stop-color="#9CE38A"/>
<stop offset="0.06" stop-color="#A1E58F"/>
<stop offset="0.37" stop-color="#BCF2A9"/>
<stop offset="0.56" stop-color="#ACEA9F"/>
<stop offset="0.94" stop-color="#83D887"/>
<stop offset="0.98" stop-color="#7FD685"/>
</linearGradient>
<linearGradient id="paint2_linear_334_2" x1="23.6105" y1="21.8718" x2="50.1481" y2="53.1175" gradientUnits="userSpaceOnUse">
<stop offset="0.27" stop-color="#E5FBE1"/>
<stop offset="0.32" stop-color="#D0F4C8"/>
<stop offset="0.41" stop-color="#B3EAA6"/>
<stop offset="0.48" stop-color="#A2E591"/>
<stop offset="0.53" stop-color="#9CE38A"/>
<stop offset="0.98" stop-color="#7FD486"/>
</linearGradient>
<linearGradient id="paint3_linear_334_2" x1="44.5595" y1="47.7242" x2="105.091" y2="98.4018" gradientUnits="userSpaceOnUse">
<stop stop-color="#77CF7F"/>
<stop offset="1" stop-color="#1B986C"/>
</linearGradient>
<linearGradient id="paint4_linear_334_2" x1="45.4182" y1="48.4439" x2="92.966" y2="88.2514" gradientUnits="userSpaceOnUse">
<stop stop-color="#5EC373"/>
<stop offset="1" stop-color="#147A56"/>
</linearGradient>
<linearGradient id="paint5_linear_334_2" x1="35.341" y1="38.2183" x2="48.3551" y2="49.1135" gradientUnits="userSpaceOnUse">
<stop stop-color="#8EDF94"/>
<stop offset="1" stop-color="#6CC97F"/>
</linearGradient>
<linearGradient id="paint6_linear_334_2" x1="47.0238" y1="48.1496" x2="121.922" y2="118.078" gradientUnits="userSpaceOnUse">
<stop stop-color="#A1E2B5"/>
<stop offset="0.55" stop-color="#73CAA2"/>
<stop offset="0.93" stop-color="#59BD98"/>
</linearGradient>
<linearGradient id="paint7_linear_334_2" x1="10.2844" y1="6.63718" x2="47.1878" y2="49.4374" gradientUnits="userSpaceOnUse">
<stop offset="0.06" stop-color="#F7FCF8"/>
<stop offset="0.19" stop-color="#E1F5E6"/>
<stop offset="0.28" stop-color="#D8F3DF"/>
<stop offset="0.54" stop-color="#C0EBCD"/>
<stop offset="0.81" stop-color="#AFE5C0"/>
<stop offset="1" stop-color="#A9E3BC"/>
</linearGradient>
<linearGradient id="paint8_linear_334_2" x1="63.9996" y1="126.838" x2="63.9996" y2="65.2492" gradientUnits="userSpaceOnUse">
<stop offset="0.77" stop-color="#E1E3DC"/>
<stop offset="0.82" stop-color="#DEE0D9"/>
<stop offset="0.86" stop-color="#D6D8D1"/>
<stop offset="0.88" stop-color="#C7C9C3"/>
<stop offset="0.91" stop-color="#B3B5AF"/>
<stop offset="0.93" stop-color="#999A96"/>
<stop offset="0.95" stop-color="#797A76"/>
<stop offset="0.97" stop-color="#525351"/>
<stop offset="0.99" stop-color="#272826"/>
<stop offset="1"/>
</linearGradient>
<clipPath id="clip0_334_2">
<rect width="128" height="128" fill="white"/>
</clipPath>
</defs>
</svg>
