<svg width="256" height="256" viewBox="0 0 256 256" fill="none" xmlns="http://www.w3.org/2000/svg">
<rect x="0.5" y="0.5" width="255" height="255" rx="59.5" stroke="gray"/>
<path d="M196 0C223.294 0 246.33 18.2249 253.605 43.1689C235.112 38.8075 215.825 36.5 196 36.5C116.571 36.5 45.7935 73.5428 0 131.295V60C0 26.8629 26.8629 0 60 0H196Z" fill="black"/>
<path d="M86.788 131.156V185.94C86.788 192.255 88.0253 196.991 90.5 200.148C92.9747 203.22 97.1133 204.756 102.916 204.756C108.719 204.756 112.857 203.22 115.332 200.148C117.807 196.991 119.044 192.255 119.044 185.94V131.156H137.988V183.892C137.988 190.463 137.348 196.18 136.068 201.044C134.873 205.823 132.868 209.791 130.052 212.948C127.236 216.02 123.609 218.324 119.172 219.86C114.735 221.311 109.316 222.036 102.916 222.036C96.516 222.036 91.0973 221.311 86.66 219.86C82.2227 218.324 78.596 216.02 75.78 212.948C72.964 209.791 70.916 205.823 69.636 201.044C68.4413 196.18 67.844 190.463 67.844 183.892V131.156H86.788ZM193.327 222.036C187.268 222.036 181.807 221.097 176.943 219.22C172.079 217.257 167.94 214.399 164.527 210.644C161.114 206.804 158.468 202.068 156.591 196.436C154.714 190.719 153.775 184.063 153.775 176.468C153.775 168.959 154.714 162.303 156.591 156.5C158.468 150.612 161.114 145.705 164.527 141.78C167.94 137.769 172.079 134.74 176.943 132.692C181.807 130.644 187.268 129.62 193.327 129.62C201.604 129.62 208.431 131.327 213.807 134.74C219.183 138.068 223.492 143.359 226.735 150.612L209.967 159.316C208.772 155.561 206.895 152.575 204.335 150.356C201.86 148.052 198.191 146.9 193.327 146.9C187.61 146.9 183.002 148.777 179.503 152.532C176.09 156.201 174.383 161.577 174.383 168.66V182.996C174.383 190.079 176.09 195.497 179.503 199.252C183.002 202.921 187.61 204.756 193.327 204.756C198.106 204.756 201.903 203.476 204.719 200.916C207.62 198.271 209.754 195.113 211.119 191.444L226.991 200.66C223.663 207.487 219.268 212.777 213.807 216.532C208.431 220.201 201.604 222.036 193.327 222.036Z" fill="black"/>
</svg>
