<svg width="128" height="128" viewBox="0 0 128 128" fill="none" xmlns="http://www.w3.org/2000/svg">
<g clip-path="url(#clip0_242_135)">
<path d="M2.16082 65.8675C2.16082 31.7144 29.8471 4.02806 64.0003 4.02806C70.1777 4.02806 76.1419 4.93829 81.7712 6.62406L84.4453 3.8016C78.0287 1.62581 71.1524 0.445679 64.0008 0.445679C28.8588 0.445679 0.370117 28.9339 0.370117 64.0764C0.370117 72.4422 1.9856 80.4308 4.92032 87.7484L5.80323 86.8162C3.44784 80.2737 2.1613 73.2212 2.1613 65.8675H2.16082Z" fill="url(#paint0_linear_242_135)"/>
<path d="M19.1447 64.0764C19.1447 39.3038 39.2271 19.2215 63.9997 19.2215C65.8675 19.2215 67.7084 19.3376 69.5162 19.5592L81.77 6.62408C76.1412 4.93782 70.1771 4.02808 63.9992 4.02808C29.846 4.02808 2.15967 31.7144 2.15967 65.8676C2.15967 73.2212 3.4462 80.2737 5.80159 86.8162L19.8417 71.9957C19.3839 69.425 19.1447 66.7788 19.1447 64.0764Z" fill="url(#paint1_linear_242_135)"/>
<path d="M84.4444 3.80151L81.7703 6.62398L69.5165 19.5591C91.6862 22.2786 108.854 41.1715 108.854 64.0758C108.854 88.8484 88.772 108.931 63.9994 108.931C41.9292 108.931 23.582 92.9906 19.8419 71.9951L5.80185 86.8156L4.91895 87.7478C14.3112 111.167 37.2233 127.706 63.9994 127.706C99.1414 127.706 127.63 99.2182 127.63 64.0758C127.63 36.0854 109.557 12.3163 84.4444 3.80103V3.80151Z" fill="url(#paint2_linear_242_135)"/>
<path d="M63.9998 108.931C88.7723 108.931 108.855 88.849 108.855 64.0764C108.855 41.1716 91.6861 22.2787 69.5168 19.5597L19.8423 71.9957C23.5823 92.9911 41.9296 108.931 63.9998 108.931Z" fill="url(#paint3_linear_242_135)"/>
<path d="M19.145 64.0763C19.145 66.7788 19.3842 69.425 19.842 71.9957L69.5165 19.5597C67.7082 19.3381 65.8677 19.2219 63.9999 19.2219C39.2273 19.2219 19.145 39.3042 19.145 64.0768V64.0763Z" fill="url(#paint4_linear_242_135)"/>
<path d="M69.2139 127.823H59.7856L62.0373 65.8831C62.8053 66.161 63.6364 66.3134 64.5007 66.3134C65.365 66.3134 66.1942 66.1628 66.9623 65.8844L69.2139 127.822V127.823Z" fill="url(#paint5_linear_242_135)"/>
<path d="M106.195 88.7199C106.195 88.9879 106.124 89.2595 105.975 89.5046C105.561 90.1832 104.694 90.427 103.988 90.0609C98.2535 87.0857 75.4977 75.3411 73.8703 74.3527C72.8009 73.7002 70.9019 71.5183 69.7183 70.0896C70.7364 69.0301 71.4352 67.6626 71.6587 66.1409C73.4251 66.515 76.6071 67.2534 77.7628 67.9572C79.3884 68.9474 100.278 83.7594 105.556 87.4846C105.972 87.7778 106.195 88.2446 106.195 88.7195V88.7199Z" fill="#F4F7EF"/>
<path d="M59.2805 70.0901C58.0982 71.5188 56.1996 73.7007 55.1285 74.3532C53.501 75.3417 30.7452 87.0863 25.0103 90.0614C24.3052 90.4275 23.4377 90.1837 23.0236 89.5052C22.8747 89.2601 22.8032 88.9885 22.8032 88.7204C22.8032 88.2451 23.0267 87.7783 23.4422 87.4856C28.7203 83.7603 49.6103 68.9484 51.2377 67.9582C52.3916 67.2544 55.5719 66.516 57.34 66.1418C57.5635 67.6632 58.2624 69.0307 59.2805 70.0906V70.0901Z" fill="#F4F7EF"/>
<path d="M68.4739 51.7912C68.4739 53.197 67.4342 56.3821 66.792 58.2115C66.072 57.9714 65.3022 57.8405 64.5008 57.8405C63.6995 57.8405 62.9283 57.9714 62.2078 58.2115C61.5657 56.3821 60.5273 53.197 60.5273 51.7912C60.5273 49.7712 62.4327 22.6498 62.8999 15.8091C62.9561 14.9664 63.6563 14.3143 64.5008 14.3143C64.9231 14.3143 65.3071 14.4767 65.5954 14.7465C65.8836 15.0145 66.072 15.3873 66.1022 15.8096C66.5672 22.6503 68.4748 49.7717 68.4748 51.7917L68.4739 51.7912Z" fill="#F4F7EF"/>
<path d="M71.7369 65.0769C71.7369 65.438 71.7104 65.7938 71.6591 66.1414C71.4356 67.6627 70.7368 69.0302 69.7187 70.0901C68.9569 70.8829 68.0166 71.5021 66.9621 71.8848C66.194 72.1627 65.3643 72.3138 64.5005 72.3138C63.6366 72.3138 62.8051 72.1614 62.037 71.8835C60.9825 71.5026 60.0422 70.8834 59.2804 70.0906C58.2623 69.0311 57.5635 67.6636 57.34 66.1418C57.2887 65.7942 57.2622 65.438 57.2622 65.0774C57.2622 61.8823 59.3335 59.1702 62.2075 58.2119C62.9274 57.9718 63.6991 57.8409 64.5005 57.8409C65.3018 57.8409 66.0717 57.9718 66.7916 58.2119C69.6656 59.1707 71.7369 61.8823 71.7369 65.0774V65.0769Z" fill="#EFF4EB"/>
</g>
<defs>
<linearGradient id="paint0_linear_242_135" x1="73.6039" y1="-6.60048" x2="-9.18127" y2="73.9972" gradientUnits="userSpaceOnUse">
<stop stop-color="#9CE38A"/>
<stop offset="0.06" stop-color="#A1E58F"/>
<stop offset="0.37" stop-color="#BCF2A9"/>
<stop offset="0.56" stop-color="#ACEA9F"/>
<stop offset="0.94" stop-color="#83D887"/>
<stop offset="0.98" stop-color="#7FD685"/>
</linearGradient>
<linearGradient id="paint1_linear_242_135" x1="16.0426" y1="14.0548" x2="47.5524" y2="51.1549" gradientUnits="userSpaceOnUse">
<stop offset="0.27" stop-color="#E5FBE1"/>
<stop offset="0.32" stop-color="#D0F4C8"/>
<stop offset="0.41" stop-color="#B3EAA6"/>
<stop offset="0.48" stop-color="#A2E591"/>
<stop offset="0.53" stop-color="#9CE38A"/>
<stop offset="0.98" stop-color="#7FD486"/>
</linearGradient>
<linearGradient id="paint2_linear_242_135" x1="40.917" y1="44.7509" x2="112.791" y2="104.924" gradientUnits="userSpaceOnUse">
<stop stop-color="#77CF7F"/>
<stop offset="1" stop-color="#1B986C"/>
</linearGradient>
<linearGradient id="paint3_linear_242_135" x1="41.9364" y1="45.6056" x2="98.393" y2="92.8716" gradientUnits="userSpaceOnUse">
<stop stop-color="#5EC373"/>
<stop offset="1" stop-color="#147A56"/>
</linearGradient>
<linearGradient id="paint4_linear_242_135" x1="29.9712" y1="33.4641" x2="45.4238" y2="46.4007" gradientUnits="userSpaceOnUse">
<stop stop-color="#8EDF94"/>
<stop offset="1" stop-color="#6CC97F"/>
</linearGradient>
<linearGradient id="paint5_linear_242_135" x1="64.4993" y1="127.823" x2="64.4993" y2="60.4436" gradientUnits="userSpaceOnUse">
<stop offset="0.77" stop-color="#E1E3DC"/>
<stop offset="0.82" stop-color="#DEE0D9"/>
<stop offset="0.86" stop-color="#D6D8D1"/>
<stop offset="0.88" stop-color="#C7C9C3"/>
<stop offset="0.91" stop-color="#B3B5AF"/>
<stop offset="0.93" stop-color="#999A96"/>
<stop offset="0.95" stop-color="#797A76"/>
<stop offset="0.97" stop-color="#525351"/>
<stop offset="0.99" stop-color="#272826"/>
<stop offset="1"/>
</linearGradient>
<clipPath id="clip0_242_135">
<rect width="128" height="128" fill="white"/>
</clipPath>
</defs>
</svg>
