<svg width="220" height="193" viewBox="0 0 77 193" fill="none" xmlns="http://www.w3.org/2000/svg">
    <style>
        #blade {
        animation: spin 8s linear infinite;
        transform-origin: 38.114px 46.4px;
        }
        @keyframes spin {
        from {
        transform: rotate(0deg);
        }
        to {
        transform: rotate(360deg);
        }
        }
    </style>
    <path
        d="M45.4222 192.481H30.8042L34.8623 51.6213C35.5644 52.3835 37.324 52.8015 38.114 52.8015C38.9041 52.8015 40.662 52.3884 41.3641 51.625L45.4222 192.481Z"
        fill="url(#paint0_linear_36_2)" />
    <path
        d="M76.2258 68.0115C76.2258 68.2565 76.1608 68.5047 76.0244 68.7287C75.6462 69.349 74.8529 69.5718 74.2084 69.2372C68.9663 66.5177 48.1661 55.7824 46.6785 54.8789C45.701 54.2825 43.9652 52.2881 42.8833 50.9822C43.8139 50.0138 44.4527 48.7638 44.657 47.3728C46.2716 47.7148 49.1801 48.3897 50.2365 49.033C51.7224 49.9381 70.8172 63.4772 75.6417 66.8823C76.0215 67.1503 76.2258 67.577 76.2258 68.0111V68.0115Z"
        fill="#F4F7EF" id="blade" />
    <path
        d="M33.3425 50.9825C32.2618 52.2884 30.5264 54.2828 29.5473 54.8793C28.0597 55.7827 7.2595 66.518 2.01742 69.2375C1.37289 69.5721 0.579988 69.3493 0.201414 68.7291C0.0653575 68.505 0 68.2568 0 68.0118C0 67.5773 0.204289 67.1506 0.584096 66.8831C5.40855 63.4779 24.5033 49.9389 25.9909 49.0338C27.0456 48.3905 29.9526 47.7155 31.5688 47.3735C31.7731 48.7641 32.4119 50.0141 33.3425 50.9829V50.9825Z"
        fill="#F4F7EF" id="blade" />
    <path
        d="M41.7455 34.2562C41.7455 35.5412 40.7952 38.4526 40.2082 40.1248C39.5501 39.9053 38.8464 39.7856 38.1139 39.7856C37.3815 39.7856 36.6765 39.9053 36.018 40.1248C35.431 38.4526 34.4819 35.5412 34.4819 34.2562C34.4819 32.4098 36.2235 7.61916 36.6506 1.36632C36.702 0.596018 37.342 0 38.1139 0C38.4999 0 38.8509 0.14839 39.1144 0.395018C39.3779 0.640002 39.5501 0.980758 39.5777 1.36673C40.0027 7.61958 41.7464 32.4102 41.7464 34.2566L41.7455 34.2562Z"
        fill="#F4F7EF" id="blade" />
    <path
        d="M44.7283 46.4C44.7283 46.7301 44.7041 47.0553 44.6572 47.373C44.4529 48.7636 43.8142 50.0136 42.8836 50.9824C42.1872 51.7071 41.3277 52.2731 40.3638 52.6229C39.6618 52.8769 38.9034 53.015 38.1138 53.015C37.3241 53.015 36.5641 52.8757 35.8621 52.6217C34.8981 52.2735 34.0387 51.7075 33.3423 50.9828C32.4117 50.0144 31.773 48.7644 31.5687 47.3734C31.5218 47.0557 31.4976 46.7301 31.4976 46.4005C31.4976 43.48 33.3908 41.0009 36.0178 40.125C36.6759 39.9055 37.3813 39.7859 38.1138 39.7859C38.8463 39.7859 39.55 39.9055 40.208 40.125C42.8351 41.0014 44.7283 43.48 44.7283 46.4005V46.4Z"
        fill="#EFF4EB" />
    <defs>
        <linearGradient id="paint0_linear_36_2" x1="38.1128" y1="222.481" x2="38.1128" y2="37.7044"
            gradientUnits="userSpaceOnUse">
            <stop offset="0.77" stop-color="#E1E3DC" />
            <stop offset="0.82" stop-color="#DEE0D9" />
            <stop offset="0.86" stop-color="#D6D8D1" />
            <stop offset="0.88" stop-color="#C7C9C3" />
            <stop offset="0.91" stop-color="#B3B5AF" />
            <stop offset="0.93" stop-color="#999A96" />
            <stop offset="0.95" stop-color="#797A76" />
            <stop offset="0.97" stop-color="#525351" />
            <stop offset="0.99" stop-color="#272826" />
            <stop offset="1" />
        </linearGradient>
    </defs>
</svg>